<svg width="202" height="22" viewBox="0 0 202 22" fill="none" xmlns="http://www.w3.org/2000/svg">
<path d="M0.168 16L3.432 0.543999H9.696C11.888 0.543999 13.432 1.168 14.328 2.416C15.224 3.648 15.376 5.632 14.784 8.368C14.224 11.008 13.28 12.944 11.952 14.176C10.64 15.392 8.824 16 6.504 16H0.168ZM3.192 13.984H6.432C7.488 13.984 8.376 13.84 9.096 13.552C9.832 13.248 10.448 12.688 10.944 11.872C11.44 11.056 11.848 9.888 12.168 8.368C12.488 6.848 12.616 5.672 12.552 4.84C12.504 4.008 12.192 3.424 11.616 3.088C11.04 2.752 10.12 2.584 8.856 2.584H5.616L3.192 13.984ZM15.7539 16L18.1539 4.624H20.5539L20.4339 5.944C21.0419 5.592 21.7459 5.272 22.5459 4.984C23.3619 4.696 24.1539 4.496 24.9219 4.384L24.5139 6.376C24.0499 6.456 23.5379 6.576 22.9779 6.736C22.4339 6.88 21.9059 7.048 21.3939 7.24C20.8819 7.416 20.4499 7.6 20.0979 7.792L18.3699 16H15.7539ZM28.5416 16.24C27.5176 16.24 26.6536 16.064 25.9496 15.712C25.2616 15.344 24.7896 14.76 24.5336 13.96C24.2776 13.144 24.2776 12.08 24.5336 10.768C24.8056 9.44 25.2776 8.304 25.9496 7.36C26.6376 6.4 27.4456 5.664 28.3736 5.152C29.3176 4.64 30.3176 4.384 31.3736 4.384C32.0616 4.384 32.6456 4.464 33.1256 4.624C33.6056 4.784 34.0536 5.048 34.4696 5.416L34.6376 4.624H37.2536L34.8536 16H32.6216L32.6696 14.872C32.0616 15.336 31.4296 15.68 30.7736 15.904C30.1176 16.128 29.3736 16.24 28.5416 16.24ZM29.6696 14.272C30.8376 14.272 31.8936 13.872 32.8376 13.072L34.0376 7.432C33.7496 7.096 33.4216 6.84 33.0536 6.664C32.7016 6.472 32.2376 6.376 31.6616 6.376C30.5096 6.376 29.5496 6.76 28.7816 7.528C28.0136 8.28 27.4776 9.368 27.1736 10.792C26.9816 11.688 26.9256 12.392 27.0056 12.904C27.1016 13.4 27.3576 13.752 27.7736 13.96C28.2056 14.168 28.8376 14.272 29.6696 14.272ZM39.9068 16L39.3068 4.624H41.9228L42.1388 12.904L45.8348 6.016L46.1228 4.624H48.1148L48.8348 12.904L52.5548 4.624H55.1468L49.7708 16H47.3948L46.5308 8.56L42.4988 16H39.9068ZM65.8883 16L67.0883 10.264L63.6083 0.543999H66.2243L68.7683 8.056L74.4803 0.543999H77.2883L69.6803 10.264L68.4803 16H65.8883ZM79.395 16.24C77.507 16.24 76.155 15.728 75.339 14.704C74.539 13.68 74.339 12.216 74.739 10.312C75.139 8.408 75.899 6.944 77.019 5.92C78.139 4.896 79.771 4.384 81.915 4.384C83.867 4.384 85.235 4.896 86.019 5.92C86.819 6.944 87.019 8.408 86.619 10.312C86.219 12.216 85.459 13.68 84.339 14.704C83.219 15.728 81.571 16.24 79.395 16.24ZM79.875 14.032C81.075 14.032 81.987 13.744 82.611 13.168C83.235 12.576 83.691 11.624 83.979 10.312C84.251 9 84.227 8.056 83.907 7.48C83.587 6.904 82.771 6.616 81.459 6.616C80.275 6.616 79.363 6.904 78.723 7.48C78.099 8.056 77.651 9 77.379 10.312C77.091 11.624 77.115 12.576 77.451 13.168C77.803 13.744 78.611 14.032 79.875 14.032ZM92.0203 16.24C90.7563 16.24 89.8203 15.864 89.2123 15.112C88.6043 14.36 88.4523 13.256 88.7563 11.8L90.2683 4.624H92.8843L91.3723 11.8C91.1803 12.728 91.2363 13.376 91.5403 13.744C91.8443 14.096 92.4603 14.272 93.3883 14.272C94.0283 14.272 94.6443 14.152 95.2363 13.912C95.8283 13.672 96.3643 13.352 96.8443 12.952L98.6203 4.624H101.212L98.8123 16H96.4363L96.5563 14.824C95.9643 15.224 95.2843 15.56 94.5163 15.832C93.7483 16.104 92.9163 16.24 92.0203 16.24ZM101.887 16L104.287 4.624H106.687L106.567 5.944C107.175 5.592 107.879 5.272 108.679 4.984C109.495 4.696 110.287 4.496 111.055 4.384L110.647 6.376C110.183 6.456 109.671 6.576 109.111 6.736C108.567 6.88 108.039 7.048 107.527 7.24C107.015 7.416 106.583 7.6 106.231 7.792L104.503 16H101.887ZM116.066 16L119.33 0.543999H126.218C127.37 0.543999 128.282 0.767999 128.954 1.216C129.626 1.664 130.074 2.28 130.298 3.064C130.522 3.832 130.53 4.712 130.322 5.704C129.986 7.24 129.29 8.472 128.234 9.4C127.178 10.328 125.754 10.792 123.962 10.792H119.786L118.682 16H116.066ZM120.218 8.728H123.914C125.066 8.728 125.938 8.456 126.53 7.912C127.138 7.368 127.53 6.632 127.706 5.704C127.93 4.584 127.898 3.784 127.61 3.304C127.322 2.824 126.626 2.584 125.522 2.584H121.514L120.218 8.728ZM130.246 16L132.646 4.624H135.046L134.926 5.944C135.534 5.592 136.238 5.272 137.038 4.984C137.854 4.696 138.646 4.496 139.414 4.384L139.006 6.376C138.542 6.456 138.03 6.576 137.47 6.736C136.926 6.88 136.398 7.048 135.886 7.24C135.374 7.416 134.942 7.6 134.59 7.792L132.862 16H130.246ZM143.778 16.24C141.89 16.24 140.538 15.728 139.722 14.704C138.922 13.68 138.722 12.216 139.122 10.312C139.522 8.408 140.282 6.944 141.402 5.92C142.522 4.896 144.154 4.384 146.298 4.384C148.25 4.384 149.618 4.896 150.402 5.92C151.202 6.944 151.402 8.408 151.002 10.312C150.602 12.216 149.842 13.68 148.722 14.704C147.602 15.728 145.954 16.24 143.778 16.24ZM144.258 14.032C145.458 14.032 146.37 13.744 146.994 13.168C147.618 12.576 148.074 11.624 148.362 10.312C148.634 9 148.61 8.056 148.29 7.48C147.97 6.904 147.154 6.616 145.842 6.616C144.658 6.616 143.746 6.904 143.106 7.48C142.482 8.056 142.034 9 141.762 10.312C141.474 11.624 141.498 12.576 141.834 13.168C142.186 13.744 142.994 14.032 144.258 14.032ZM155.685 2.248L156.141 0.0879989H158.997L158.541 2.248H155.685ZM150.765 21.616C149.837 21.616 149.069 21.488 148.461 21.232L148.869 19.336C149.109 19.416 149.357 19.472 149.613 19.504C149.853 19.552 150.077 19.576 150.285 19.576C151.037 19.576 151.581 19.44 151.917 19.168C152.269 18.896 152.509 18.448 152.637 17.824L155.037 6.616H153.309L153.957 4.624H158.037L155.181 18.064C154.957 19.136 154.485 19.992 153.765 20.632C153.045 21.288 152.045 21.616 150.765 21.616ZM164.34 16.24C163.092 16.24 162.044 16.024 161.196 15.592C160.364 15.16 159.78 14.504 159.444 13.624C159.108 12.744 159.084 11.632 159.372 10.288C159.756 8.464 160.484 7.024 161.556 5.968C162.644 4.912 164.204 4.384 166.236 4.384C167.372 4.384 168.276 4.6 168.948 5.032C169.62 5.464 170.076 6.048 170.316 6.784C170.572 7.52 170.604 8.336 170.412 9.232L169.98 11.344H161.652C161.54 12.448 161.748 13.208 162.276 13.624C162.804 14.04 163.812 14.248 165.3 14.248C165.876 14.248 166.476 14.192 167.1 14.08C167.724 13.968 168.284 13.824 168.78 13.648L168.372 15.568C167.812 15.792 167.188 15.96 166.5 16.072C165.812 16.184 165.092 16.24 164.34 16.24ZM162.012 9.64H168.036L168.204 8.848C168.38 8.064 168.308 7.456 167.988 7.024C167.684 6.576 166.988 6.352 165.9 6.352C164.684 6.352 163.788 6.616 163.212 7.144C162.652 7.672 162.252 8.504 162.012 9.64ZM177.062 16.24C175.222 16.24 173.862 15.736 172.982 14.728C172.102 13.704 171.862 12.232 172.262 10.312C172.678 8.312 173.518 6.824 174.782 5.848C176.062 4.872 177.71 4.384 179.726 4.384C180.51 4.384 181.158 4.44 181.67 4.552C182.182 4.664 182.662 4.84 183.11 5.08L182.702 7.024C181.966 6.608 181.006 6.4 179.822 6.4C178.51 6.4 177.438 6.696 176.606 7.288C175.774 7.864 175.206 8.872 174.902 10.312C174.614 11.672 174.686 12.672 175.118 13.312C175.55 13.936 176.542 14.248 178.094 14.248C179.23 14.248 180.31 14.032 181.334 13.6L180.902 15.592C180.326 15.8 179.726 15.96 179.102 16.072C178.478 16.184 177.798 16.24 177.062 16.24ZM187.206 16.24C185.99 16.24 185.15 15.92 184.686 15.28C184.222 14.624 184.11 13.736 184.35 12.616L185.622 6.664H183.942L184.374 4.624H186.054L186.606 2.008L189.366 1.216L188.646 4.624H191.67L191.07 6.664H188.214L186.99 12.472C186.83 13.208 186.87 13.688 187.11 13.912C187.35 14.136 187.83 14.248 188.55 14.248C188.998 14.248 189.47 14.168 189.966 14.008L189.582 15.856C188.878 16.112 188.086 16.24 187.206 16.24ZM195.302 16.24C194.518 16.24 193.782 16.184 193.094 16.072C192.406 15.96 191.846 15.824 191.414 15.664L191.894 13.456C192.39 13.664 192.95 13.824 193.574 13.936C194.214 14.048 194.83 14.104 195.422 14.104C196.318 14.104 196.974 14.024 197.39 13.864C197.806 13.704 198.07 13.392 198.182 12.928C198.262 12.592 198.206 12.328 198.014 12.136C197.822 11.944 197.51 11.768 197.078 11.608C196.646 11.448 196.102 11.256 195.446 11.032C194.822 10.808 194.286 10.568 193.838 10.312C193.406 10.04 193.102 9.696 192.926 9.28C192.75 8.864 192.726 8.32 192.854 7.648C193.078 6.608 193.606 5.808 194.438 5.248C195.27 4.672 196.558 4.384 198.302 4.384C198.958 4.384 199.566 4.432 200.126 4.528C200.702 4.624 201.19 4.744 201.59 4.888L201.134 7.072C200.734 6.896 200.27 6.76 199.742 6.664C199.214 6.568 198.718 6.52 198.254 6.52C197.422 6.52 196.782 6.592 196.334 6.736C195.886 6.88 195.614 7.168 195.518 7.6C195.422 8.048 195.574 8.368 195.974 8.56C196.374 8.736 197.03 8.984 197.942 9.304C198.774 9.576 199.422 9.864 199.886 10.168C200.35 10.472 200.654 10.84 200.798 11.272C200.942 11.688 200.942 12.232 200.798 12.904C200.558 14.024 200.006 14.864 199.142 15.424C198.294 15.968 197.014 16.24 195.302 16.24Z" fill="black"/>
</svg>
