<svg width="50" height="45" viewBox="0 0 50 45" fill="none" xmlns="http://www.w3.org/2000/svg">
<path d="M33.352 8.06492C33.7942 12.0054 34.8695 16.1884 35.9674 20.2172C36.119 20.7734 36.2709 21.3263 36.4217 21.8752C37.372 25.3344 38.2794 28.6375 38.7936 31.6237C39.394 35.1101 39.4137 37.9464 38.499 39.9793C37.6372 41.8946 35.8464 43.2965 32.2399 43.7041C27.8819 44.1967 23.2858 43.77 19.3649 42.7174C17.3129 42.1666 14.7772 40.5077 12.5468 38.3678C10.3168 36.2283 8.55144 33.7608 7.90828 31.7334C5.7038 24.784 4.15169 17.3045 4.89109 11.5024C5.25872 8.61757 6.18215 6.23471 7.78734 4.5242C9.37693 2.83033 11.733 1.69142 15.1839 1.46703C16.4605 1.38402 17.811 1.34771 19.2303 1.33793C22.7632 1.31359 26.1789 1.47265 28.7893 2.43601C30.0766 2.91109 31.1216 3.5661 31.8862 4.45182C32.6438 5.3294 33.1753 6.48984 33.352 8.06492Z" fill="#D9D9D9" stroke="black" stroke-width="2"/>
<path d="M19.6647 20.7843L19.6998 19.882C19.6998 19.8116 19.7389 19.7491 19.817 19.6945C20.5436 19.257 21.2467 19.0382 21.9264 19.0382C22.6139 19.0382 23.192 19.1476 23.6608 19.3663C24.5123 19.7804 25.1764 20.4913 25.653 21.4991C26.1373 22.4991 26.3795 23.4796 26.3795 24.4406C26.3795 25.4015 26.278 26.2218 26.0748 26.9015C25.8717 27.5812 25.5826 28.1945 25.2076 28.7413C24.8405 29.2882 24.3678 29.7257 23.7897 30.0538C23.2115 30.382 22.5358 30.546 21.7623 30.546C20.9889 30.546 20.2545 30.339 19.5592 29.9249C18.8639 29.5109 18.3053 28.9601 17.8834 28.2726C17.0084 26.8585 16.5709 25.2609 16.5709 23.4796C16.5787 21.6984 16.9967 20.0109 17.8248 18.4171C18.653 16.8234 19.7975 15.4015 21.2584 14.1515C22.7194 12.9015 24.3912 11.8976 26.274 11.1398C26.3287 11.1241 26.3834 11.1281 26.4381 11.1515C26.5006 11.1749 26.5319 11.2101 26.5319 11.257V11.796C26.5319 11.8663 26.485 11.9249 26.3912 11.9718C26.2975 12.0109 26.1803 12.0656 26.0397 12.1359C21.2506 14.9093 18.8561 18.7374 18.8561 23.6202C18.8561 24.3937 18.9655 25.1866 19.1842 25.9991C19.4108 26.8116 19.7545 27.5226 20.2155 28.132C20.6764 28.7413 21.1569 29.046 21.6569 29.046C22.5865 29.046 23.2272 28.6788 23.5787 27.9445C23.9303 27.2101 24.1061 26.4445 24.1061 25.6476C24.1061 24.8507 24.0514 24.1632 23.942 23.5851C23.8405 22.9991 23.6803 22.4562 23.4615 21.9562C23.2428 21.4562 22.9381 21.0577 22.5475 20.7609C22.1647 20.4562 21.7858 20.3038 21.4108 20.3038C21.0436 20.3038 20.692 20.4054 20.3561 20.6085C20.0201 20.8116 19.8209 20.9132 19.7584 20.9132C19.6959 20.9132 19.6647 20.8702 19.6647 20.7843Z" fill="black"/>
</svg>
