<svg width="54" height="48" viewBox="0 0 54 48" fill="none" xmlns="http://www.w3.org/2000/svg">
<path d="M32.4555 11.8394C33.9375 13.0422 35.5931 14.2942 37.2715 15.5634C38.2554 16.3074 39.2471 17.0573 40.2163 17.8068C42.8686 19.8578 45.3932 21.9347 47.3522 24.018C49.3263 26.1174 50.6236 28.1181 50.984 30.0019C51.3265 31.7925 50.8499 33.6256 48.9041 35.5465C45.1397 39.2628 38.5617 42.1024 31.4658 44.009C24.4031 45.9066 16.9999 46.8351 11.735 46.8351C10.0758 46.8351 8.80644 46.5215 7.82301 45.9969C6.8453 45.4754 6.09433 44.7157 5.5117 43.7324C4.31965 41.7205 3.84966 38.8076 3.706 35.2648C3.61802 33.0953 3.65234 30.8007 3.68793 28.421C3.71059 26.906 3.73377 25.3564 3.72624 23.7827C3.70718 19.8027 3.4873 15.7603 2.49848 12.1852C2.25099 11.2904 2.06452 10.4704 1.9564 9.72453C1.71476 8.05751 2.20799 6.67659 3.21214 5.52801C4.24044 4.35179 5.82757 3.40002 7.75809 2.73231C11.6327 1.39218 16.5621 1.30801 20.1282 2.50582C22.0646 3.15623 23.835 4.39933 25.8042 6.06079C26.6066 6.73779 27.4255 7.46952 28.2975 8.24876C28.4941 8.42443 28.6934 8.60252 28.8958 8.78294C29.9905 9.75861 31.1652 10.7922 32.4555 11.8394Z" fill="#D9D9D9" stroke="black" stroke-width="2"/>
<path d="M26.9437 20.4727C26.9359 22.1289 25.9241 23.3594 23.9085 24.1641V24.2461C25.1116 24.5039 26.0804 25.0547 26.8148 25.8984C27.5491 26.7344 27.9163 27.6562 27.9163 28.6641C27.9163 29.6719 27.7366 30.5547 27.3773 31.3125C26.7054 32.7344 25.5335 33.8711 23.8616 34.7227C22.1898 35.5742 20.3694 36 18.4007 36C18.2757 36 18.1859 35.8672 18.1312 35.6016C18.0765 35.3359 18.0648 35.1211 18.096 34.957C18.1351 34.7852 18.1702 34.6875 18.2015 34.6641C18.2327 34.6328 18.2718 34.6055 18.3187 34.582C18.3655 34.5508 18.4007 34.5234 18.4241 34.5C18.6273 34.5156 18.8929 34.5234 19.221 34.5234C19.5491 34.5234 20.0101 34.457 20.6038 34.3242C21.2054 34.1836 21.8069 33.9648 22.4085 33.668C23.0101 33.3633 23.5491 32.9961 24.0257 32.5664C24.5023 32.1367 24.889 31.5977 25.1859 30.9492C25.4905 30.293 25.6429 29.582 25.6429 28.8164C25.6429 27.7539 25.2835 26.875 24.5648 26.1797C23.846 25.4844 22.971 25.1367 21.9398 25.1367H21.7405C21.553 25.1367 21.4593 25.0703 21.4593 24.9375L21.471 23.7422C21.471 23.6094 21.5804 23.543 21.7991 23.543H21.8812C22.678 23.543 23.3421 23.2305 23.8734 22.6055C24.4124 21.9727 24.6819 21.2852 24.6819 20.543C24.6819 19.793 24.4905 19.1992 24.1077 18.7617C23.7249 18.3164 23.1937 18.0938 22.514 18.0938C22.1234 18.0938 21.7796 18.25 21.4827 18.5625C21.1859 18.8672 21.0374 19.1406 21.0374 19.3828C21.0374 19.6172 21.0999 19.8242 21.2249 20.0039C21.3499 20.1836 21.4124 20.2969 21.4124 20.3438C21.4124 20.3906 21.3538 20.4805 21.2366 20.6133C21.1194 20.7461 21.0296 20.8125 20.9671 20.8125C20.9124 20.8125 20.8421 20.7812 20.7562 20.7188L20.1819 20.3438C19.6429 20 19.2757 19.7305 19.0804 19.5352C18.8851 19.3398 18.7874 19.2227 18.7874 19.1836C18.7874 19.1445 18.7913 19.1211 18.7991 19.1133C19.1116 18.3945 19.6077 17.7969 20.2874 17.3203C20.9749 16.8359 21.8577 16.5938 22.9359 16.5938C24.0218 16.5938 24.9593 16.9531 25.7484 17.6719C26.5452 18.3906 26.9437 19.3242 26.9437 20.4727Z" fill="black"/>
</svg>
