<svg width="60" height="49" viewBox="0 0 60 49" fill="none" xmlns="http://www.w3.org/2000/svg">
<path d="M37.4892 2.18305C43.0836 1.19521 49.0556 3.28754 53.2587 7.05585C57.4571 10.82 59.7482 16.1128 58.3018 21.4768C56.4752 28.2504 51.1601 34.7678 44.7732 39.6112C38.3764 44.4621 31.1008 47.486 25.5178 47.486C25.2327 47.486 24.9544 47.4844 24.6827 47.4811C15.5036 47.3698 8.23672 39.0577 5.49965 29.5217C4.14244 24.7931 3.95081 19.8988 5.15574 15.7789C6.35324 11.6844 8.92187 8.36024 13.1421 6.62977C15.7329 5.56744 18.8329 4.98601 22.5178 4.98601C27.1568 4.98601 30.0074 4.44438 32.1957 3.80174C33.0078 3.56326 33.7328 3.30901 34.3946 3.07694C34.6074 3.00229 34.8138 2.92994 35.0143 2.86115C35.8508 2.57423 36.6213 2.3363 37.4892 2.18305Z" fill="#C15345" stroke="black" stroke-width="2"/>
<path d="M25.2045 34C25.1263 34 25.099 33.832 25.1224 33.4961C25.1459 33.1602 25.1732 32.9727 25.2045 32.9336C26.2513 31.7227 27.0951 30.707 27.7357 29.8867C28.392 29.0664 29.0404 28.1562 29.681 27.1562C30.8685 25.3125 31.8568 23.0938 32.6459 20.5C32.974 19.25 32.8099 18.1094 32.1537 17.0781C31.724 16.3906 31.1693 16.0508 30.4896 16.0586C29.8177 16.0586 29.267 16.3359 28.8373 16.8906C28.4076 17.4375 28.142 18.0742 28.0404 18.8008C28.0013 19.0977 28.0287 19.3477 28.1224 19.5508C28.224 19.7461 28.3529 19.9453 28.5092 20.1484L28.7787 20.5C28.8099 20.5469 28.7904 20.6484 28.7201 20.8047C28.6576 20.9531 28.5795 21.0156 28.4857 20.9922L25.7435 19.5977C25.7435 19.0352 25.8685 18.4531 26.1185 17.8516C26.3763 17.25 26.7162 16.707 27.1381 16.2227C27.5599 15.7383 28.0677 15.3398 28.6615 15.0273C29.2552 14.7148 29.8646 14.5586 30.4896 14.5586C31.8177 14.5586 32.8881 15.0508 33.7006 16.0352C34.5131 17.0117 34.9193 18.2383 34.9193 19.7148C34.9193 21.6445 33.9467 24.0312 32.0013 26.875C31.4701 27.6562 30.9388 28.3594 30.4076 28.9844L28.9779 30.6602C28.5404 31.1523 28.1849 31.5352 27.9115 31.8086L27.5013 32.2188C27.6654 32.2188 28.0951 32.2305 28.7904 32.2539C29.767 32.2852 30.7982 32.2539 31.8842 32.1602C32.9701 32.0664 33.7318 31.7656 34.1693 31.2578C34.1849 31.2344 34.3568 31.0703 34.6849 30.7656C34.724 30.7969 34.8138 30.8281 34.9545 30.8594C35.0951 30.8828 35.1654 30.957 35.1654 31.082C35.1654 31.207 34.9896 31.7266 34.6381 32.6406C34.2943 33.5469 34.0717 34 33.9701 34H25.2045Z" fill="black"/>
</svg>
