<svg width="70" height="48" viewBox="0 0 70 48" fill="none" xmlns="http://www.w3.org/2000/svg">
<path d="M33.64 1.83508C44.6069 1.83508 52.5024 9.12199 55.19 17.6266C57.869 26.104 55.3487 35.6583 45.5549 40.3888C42.5328 41.8485 39.4262 43.0826 36.3775 44.068C31.6501 45.5959 26.4056 45.8429 21.9907 44.563C17.5978 43.2894 14.0779 40.5292 12.5764 36.0356C12.0334 34.4105 11.0728 32.9087 10.0341 31.5433C9.31726 30.6011 8.52543 29.6776 7.78586 28.815C7.4637 28.4393 7.15146 28.0752 6.85966 27.726C2.41417 22.4075 1.08945 18.2595 1.53578 15.0693C1.97909 11.9007 4.21758 9.35586 7.67282 7.34585C14.6202 3.30435 25.8149 1.83508 33.64 1.83508Z" fill="#DCBBA1" stroke="black" stroke-width="2"/>
<path d="M24.614 33.8351C24.4578 33.8351 24.3796 33.632 24.3796 33.2257C24.3796 32.8195 24.45 32.6007 24.5906 32.5695C27.3015 31.9445 29.3523 30.9445 30.7429 29.5695C31.821 28.5148 32.3562 27.2882 32.3484 25.8898C32.3406 24.4835 31.5164 23.5851 29.8757 23.1945C28.4773 22.8663 26.7664 23.0968 24.7429 23.8859C24.6726 23.9093 24.6218 23.8859 24.5906 23.8156C24.5671 23.7374 24.5632 23.6554 24.5789 23.5695L25.8093 14.8624C25.825 14.714 25.8875 14.6398 25.9968 14.6398C26.2859 14.632 27.5554 14.6398 29.8054 14.6632C32.0632 14.6866 33.3484 14.5968 33.6609 14.3937C33.6921 14.3702 33.7468 14.3156 33.825 14.2296C33.9109 14.1437 34.0554 14.1007 34.2585 14.1007C34.4617 14.1007 34.5632 14.1632 34.5632 14.2882L34.5515 14.3468C34.5515 14.5499 34.4421 14.8116 34.2234 15.132C34.0125 15.4445 33.7976 15.7023 33.5789 15.9054C33.0632 16.3898 32.3835 16.632 31.5398 16.632H27.157L26.4539 21.5304C26.5007 21.5538 26.532 21.5616 26.5476 21.5538C27.8679 21.1241 29.0007 20.9093 29.946 20.9093C31.1804 20.9093 32.2234 21.3624 33.075 22.2687C33.9265 23.1671 34.3523 24.2687 34.3523 25.5734C34.3523 26.5499 34.1335 27.4679 33.696 28.3273C33.2585 29.1788 32.7039 29.9054 32.032 30.507C31.3601 31.1007 30.5828 31.632 29.7 32.1007C28.1218 32.9445 26.4617 33.5187 24.7195 33.8234C24.696 33.8312 24.6609 33.8351 24.614 33.8351Z" fill="black"/>
</svg>
