<svg width="50" height="50" viewBox="0 0 50 50" fill="none" xmlns="http://www.w3.org/2000/svg">
<path d="M29.739 2.84157C36.0531 9.0676 39.5812 20.1668 39.235 29.9155C39.0624 34.7752 37.9289 39.1933 35.7942 42.4491C33.6818 45.671 30.5803 47.7786 26.3248 48.0953C23.3653 48.3155 20.4292 48.4928 17.7345 48.1126C15.0616 47.7356 12.7014 46.8192 10.8432 44.9038C10.7189 44.7756 10.6102 44.6383 10.5134 44.4902C7.35322 39.6544 4.53275 33.8224 3.27658 28.0242C2.02001 22.2242 2.34843 16.5669 5.32317 11.9397C7.59569 8.4047 11.0673 6.12615 16.1302 3.93149C20.2186 2.1593 23.1591 1.40302 25.3166 1.33948C27.4246 1.27739 28.7581 1.8743 29.739 2.84157Z" fill="#DCBBA1" stroke="black" stroke-width="2"/>
<path d="M21.2792 33.089C21.2792 33.2531 21.2206 33.3351 21.1034 33.3351C21.1034 33.3351 20.2558 33.3351 18.5605 33.3351C18.0526 33.3351 17.7987 33.2531 17.7987 33.089C17.7987 32.9171 17.873 32.3781 18.0214 31.4718C18.4667 28.7765 19.4628 25.8273 21.0097 22.6241L22.205 20.2335C22.8222 19.0538 23.3183 18.1827 23.6933 17.6202L24.5136 16.3663C24.5526 16.3116 24.5683 16.2531 24.5605 16.1906C24.5526 16.1202 24.5253 16.0851 24.4784 16.0851H18.4315C18.1581 16.0851 17.873 16.2882 17.5761 16.6945C17.4589 16.8507 17.3769 16.9484 17.33 16.9874C17.2831 17.0187 17.205 17.0148 17.0956 16.9757C16.7675 16.882 16.6347 16.7648 16.6972 16.6241C16.744 16.5538 16.8456 16.3624 17.0019 16.0499L17.6815 14.7726C17.9159 14.3507 18.08 14.1398 18.1737 14.1398C18.8769 14.1398 20.2362 14.1241 22.2519 14.0929C24.2753 14.0616 25.6386 14.0616 26.3417 14.0929C26.5292 14.0929 26.6425 14.171 26.6815 14.3273C26.7128 14.6476 26.7245 14.8195 26.7167 14.8429C26.7167 14.8585 26.6933 15.0304 26.6464 15.3585C26.6386 15.382 26.5839 15.4718 26.4823 15.6281C25.0995 17.7062 23.7948 20.1866 22.5683 23.0695C21.3495 25.9523 20.6151 28.5109 20.3651 30.7452C20.2792 31.5656 20.3651 32.1241 20.623 32.421C20.7401 32.5538 20.8534 32.6202 20.9628 32.6202C21.1737 32.6202 21.2792 32.7179 21.2792 32.9132V33.089Z" fill="black"/>
</svg>
