<svg width="50" height="44" viewBox="0 0 50 44" fill="none" xmlns="http://www.w3.org/2000/svg">
<path d="M14.7544 2.82946L14.8151 2.85161L14.8782 2.86575C29.7342 6.19421 41.3526 12.2631 47.1728 26.3287C49.4827 31.9109 48.9094 35.3106 46.9811 37.4958C44.9499 39.7976 41.1596 41.0872 36.2522 41.7575C31.2441 42.4416 25.4571 42.216 19.9843 40.9692C14.5052 39.721 9.41197 37.4657 5.72888 34.1498C3.08353 31.7681 1.97217 28.882 1.52651 25.5848C1.19253 23.114 1.23775 20.4988 1.28587 17.7155C1.30328 16.7083 1.32107 15.679 1.32142 14.6267C1.32229 11.9671 1.42623 9.60389 1.77118 7.62131C2.1176 5.6303 2.69104 4.12361 3.55473 3.09506C5.16313 1.17968 8.25058 0.458649 14.7544 2.82946Z" fill="#C15345" stroke="black" stroke-width="2"/>
<path d="M23.0165 23.9249C22.2509 24.5109 21.6532 25.1554 21.2235 25.8585C20.7938 26.5616 20.579 27.4015 20.579 28.3781C20.579 29.3546 20.8602 30.214 21.4227 30.9562C21.993 31.6906 22.6727 32.0577 23.4618 32.0577C24.2587 32.0577 24.9423 31.7101 25.5126 31.0148C26.0829 30.3195 26.368 29.5031 26.368 28.5656C26.368 27.3234 25.5946 26.0538 24.0477 24.757L23.0165 23.9249ZM23.661 21.6163C24.4188 21.0695 24.9969 20.5226 25.3954 19.9757C25.8016 19.4288 26.0048 18.7726 26.0048 18.007C26.0048 17.2413 25.7509 16.6202 25.243 16.1437C24.743 15.6593 24.1259 15.4171 23.3915 15.4171C22.6571 15.4171 22.036 15.6515 21.5282 16.1202C21.0282 16.589 20.7782 17.1866 20.7782 17.9132C20.7782 18.8507 21.3641 19.796 22.536 20.7491C22.8173 20.9835 23.1923 21.2726 23.661 21.6163ZM24.9501 22.589C26.5751 23.8468 27.5868 25.0929 27.9852 26.3273C28.1571 26.8585 28.243 27.5265 28.243 28.3312C28.243 29.1281 28.0321 29.9484 27.6102 30.7921C27.1962 31.6359 26.6219 32.3077 25.8876 32.8077C25.161 33.3077 24.4227 33.5577 23.6727 33.5577C22.9227 33.5577 22.243 33.421 21.6337 33.1476C21.0243 32.8741 20.4852 32.5031 20.0165 32.0343C19.5555 31.5656 19.1844 30.9991 18.9032 30.3351C18.6219 29.6632 18.4813 28.9835 18.4813 28.296C18.4813 26.9913 18.786 25.9445 19.3954 25.1554C20.0126 24.3663 20.8016 23.6281 21.7626 22.9406C20.8251 22.1749 20.0985 21.4249 19.5829 20.6906C19.0751 19.9484 18.8212 19.1085 18.8212 18.171C18.8212 16.9366 19.2743 15.921 20.1805 15.1241C21.0868 14.3195 22.1844 13.9171 23.4735 13.9171C24.7704 13.9171 25.8368 14.3234 26.6727 15.1359C27.5165 15.9406 27.9384 17.0109 27.9384 18.3468C27.9384 19.6827 27.2509 20.8741 25.8759 21.921L24.9501 22.589Z" fill="black"/>
</svg>
