<svg width="60" height="45" viewBox="0 0 60 45" fill="none" xmlns="http://www.w3.org/2000/svg">
<path d="M38.979 14.4418C40.9701 16.8315 43.6438 19.215 46.3192 21.5155C46.8067 21.9347 47.294 22.351 47.7781 22.7645C49.9773 24.643 52.1081 26.4632 53.8729 28.2314C56.0539 30.4166 57.4985 32.3564 57.8903 34.0437C58.0767 34.8467 58.0201 35.5754 57.6938 36.2711C57.3598 36.9833 56.7043 37.7427 55.5524 38.5177C52.4439 40.6093 47.4726 41.8764 41.9344 42.604C36.4347 43.3266 30.5295 43.5 25.6656 43.5C25.3805 43.5 25.1022 43.4984 24.8304 43.4951C15.6513 43.3838 8.38446 35.0717 5.64738 25.5357C4.29017 20.8071 4.09854 15.9128 5.30348 11.7929C6.50097 7.69844 9.0696 4.37423 13.2898 2.64376C15.8806 1.58143 18.9807 1 22.6656 1C25.285 1 27.2092 1.41588 28.7144 2.10011C30.2139 2.78171 31.3582 3.75704 32.383 4.96861C33.3711 6.13665 34.2267 7.49582 35.1931 9.03073C35.2446 9.11263 35.2965 9.19502 35.3487 9.27791C36.3676 10.8952 37.5005 12.6673 38.979 14.4418Z" fill="#CC976D" stroke="black" stroke-width="2"/>
<path d="M23.0992 32.4492C23.0992 32.4492 23.0992 28.0039 23.0992 19.1133C23.0992 18.7539 23.0367 18.5117 22.9117 18.3867C22.7867 18.2617 22.6031 18.1953 22.3609 18.1875C22.1265 18.1719 22.0093 18.1016 22.0093 17.9766C22.0093 17.7891 22.0601 17.6406 22.1617 17.5312L24.3999 15.3398C24.4234 15.3164 24.4624 15.3047 24.5171 15.3047H25.2671C25.3374 15.3047 25.3726 15.375 25.3726 15.5156V32.4492C25.3726 33.2773 25.5601 33.7617 25.9351 33.9023C26.1617 33.9883 26.2749 34.0781 26.2749 34.1719C26.2749 34.3906 26.2242 34.5 26.1226 34.5H22.3374C22.2359 34.5 22.1851 34.4297 22.1851 34.2891C22.1851 34.1484 22.2163 34.0586 22.2788 34.0195C22.3413 33.9805 22.4234 33.9414 22.5249 33.9023C22.7593 33.8086 22.9156 33.6445 22.9937 33.4102C23.0718 33.168 23.107 32.8477 23.0992 32.4492Z" fill="black"/>
</svg>
