<svg width="78" height="46" viewBox="0 0 78 46" fill="none" xmlns="http://www.w3.org/2000/svg">
<path d="M36.7338 1.84629C50.9682 2.069 58.4511 12.6728 58.8339 23.3011C59.0254 28.6189 57.4293 33.8793 54.0518 37.7961C50.6912 41.6931 45.5037 44.3351 38.3415 44.3351C33.969 44.3351 30.3131 43.8031 27.0387 42.827C18.0146 40.1368 11.7473 32.2884 9.95043 24.237C9.05437 20.2219 9.28343 16.2128 10.7822 12.8047C12.2731 9.41475 15.0468 6.55498 19.3751 4.84207C24.3658 2.86703 29.9239 1.83508 35.3415 1.83508C35.789 1.83508 36.2537 1.83878 36.7338 1.84629Z" fill="#C15345" stroke="black" stroke-width="2"/>
<path d="M34.2526 24.921C34.2526 24.921 32.2838 24.921 28.3463 24.921C28.2838 24.921 28.2526 24.8976 28.2526 24.8507C28.2526 24.8507 28.2526 24.4406 28.2526 23.6202C28.2526 23.6202 30.444 20.0109 34.8268 12.7921C34.9128 12.6984 34.9674 12.6476 34.9909 12.6398H36.4088C36.487 12.6398 36.526 12.6906 36.526 12.7921C36.526 12.7921 36.526 16.3077 36.526 23.339C36.526 23.339 36.5378 23.3468 36.5612 23.3624C37.0456 23.1515 37.401 22.8468 37.6276 22.4484C37.6588 22.3937 37.6901 22.3741 37.7213 22.3898L38.2604 22.6476C38.276 22.6632 38.1862 22.9054 37.9909 23.3741C37.8034 23.8429 37.5338 24.3898 37.1823 25.0148C37.1354 25.0929 37.0534 25.0968 36.9362 25.0265C36.8268 24.9562 36.7057 24.921 36.5729 24.921C36.5417 24.921 36.526 24.964 36.526 25.0499V29.7843C36.526 30.6046 36.7174 31.089 37.1003 31.2374C37.3268 31.3234 37.4401 31.4132 37.4401 31.507C37.4401 31.7257 37.3893 31.8351 37.2878 31.8351H33.4792C33.3776 31.8351 33.3268 31.7648 33.3268 31.6241C33.3268 31.4835 33.3581 31.3937 33.4206 31.3546C33.4831 31.3156 33.5651 31.2765 33.6667 31.2374C33.8932 31.1515 34.0456 30.9952 34.1237 30.7687C34.2096 30.5343 34.2526 30.2062 34.2526 29.7843V24.921ZM29.9987 23.421H34.2526V16.2491H34.2057L29.9987 23.2921C29.944 23.3781 29.944 23.421 29.9987 23.421Z" fill="black"/>
</svg>
